<svg xmlns="http://www.w3.org/2000/svg" viewBox="0 0 180 50" fill="none">
    <defs>
      <linearGradient id="syskaPinAbout" x1="0" y1="0" x2="1" y2="1">
        <stop offset="0%" stop-color="#0284c7"/>
        <stop offset="100%" stop-color="#10b981"/>
      </linearGradient>
    </defs>
    <!-- 3-blade propeller emblem -->
    <path d="M12 10c6-5 13-3 15 3-4 2-8 6-9 11-4-1-6-4-6-7 0-3 0-5 0-7z" fill="url(#syskaPinAbout)"/>
    <path d="M27 13c2 6 0 13-6 15-2-4-6-8-11-9 1-4 4-6 7-6 4 0 7 0 10 0z" fill="#0284c7" opacity="0.85"/>
    <text x="38" y="27" font-family="Arial, Helvetica, sans-serif" font-weight="900" font-size="24" fill="#0284c7" letter-spacing="0.8">SYSK/</text>
    <text x="40" y="41" font-family="Arial, Helvetica, sans-serif" font-weight="700" font-size="9" fill="#475569" letter-spacing="1">LIGHT YEARS AHEAD</text>
  </svg>